<svg width="44" height="44" viewBox="0 0 44 44" fill="none" xmlns="http://www.w3.org/2000/svg">
<rect width="44" height="44" rx="22" fill="#F8F8F8"/>
<mask id="mask0_944_4932" style="mask-type:luminance" maskUnits="userSpaceOnUse" x="13" y="10" width="18" height="22">
<path fill-rule="evenodd" clip-rule="evenodd" d="M13.0537 10.0558H30.0585V31.3118H13.0537V10.0558Z" fill="white"/>
</mask>
<g mask="url(#mask0_944_4932)">
</g>
<g clip-path="url(#clip0_944_4932)">
<path fill-rule="evenodd" clip-rule="evenodd" d="M24.9778 13.5353C24.2966 14.3579 23.1527 14.9748 22.2401 14.9748C22.1373 14.9748 22.0344 14.962 21.9702 14.9491C21.9573 14.8977 21.9316 14.7435 21.9316 14.5892C21.9316 13.5353 22.4586 12.507 23.037 11.8515C23.7696 10.9903 24.9907 10.3476 26.0061 10.3091C26.0318 10.4248 26.0447 10.5661 26.0447 10.7075C26.0447 11.7487 25.5948 12.7898 24.9778 13.5353ZM20.5079 30.1441C20.0498 30.3409 19.6157 30.5273 19.0268 30.5273C17.7671 30.5273 16.8931 29.3705 15.8906 27.9567C14.7209 26.2857 13.7698 23.7022 13.7698 21.2601C13.7698 17.327 16.3276 15.2447 18.8468 15.2447C19.5821 15.2447 20.254 15.5144 20.8514 15.7541C21.3296 15.946 21.7601 16.1188 22.1373 16.1188C22.4644 16.1188 22.8721 15.9577 23.3473 15.7699C24.0109 15.5076 24.8063 15.1933 25.6976 15.1933C26.2632 15.1933 28.3326 15.2447 29.695 17.1984C29.6872 17.2045 29.6705 17.2155 29.6463 17.2315C29.311 17.4528 27.5228 18.6333 27.5228 21.0544C27.5228 24.0493 30.132 25.1161 30.222 25.1418C30.2197 25.1476 30.2144 25.164 30.2059 25.1902C30.1201 25.4557 29.7112 26.7212 28.8338 28.0081C27.9727 29.242 27.0601 30.5016 25.6976 30.5016C25.0261 30.5016 24.5982 30.3121 24.1564 30.1165C23.685 29.9077 23.1977 29.6918 22.3815 29.6918C21.5609 29.6918 21.0194 29.9244 20.5079 30.1441Z" fill="black"/>
</g>
<defs>
<clipPath id="clip0_944_4932">
<rect width="16.4522" height="20.2182" fill="white" transform="translate(13.7698 10.3091)"/>
</clipPath>
</defs>
</svg>
